<mxfile host="app.diagrams.net" modified="2023-12-05T11:36:10.328Z" agent="Mozilla/5.0 (Windows NT 10.0; Win64; x64) AppleWebKit/537.36 (KHTML, like Gecko) Chrome/119.0.0.0 Safari/537.36" etag="zg082GPee5xk7LHmGlVc" version="22.1.5" type="device">
  <diagram name="第 1 页" id="bKIsX9FCZi-UCG-M5I07">
    <mxGraphModel dx="1434" dy="10833" grid="1" gridSize="10" guides="1" tooltips="1" connect="1" arrows="1" fold="1" page="1" pageScale="1" pageWidth="10000" pageHeight="10000" math="0" shadow="0">
      <root>
        <mxCell id="0" />
        <mxCell id="1" parent="0" />
        <mxCell id="5PjFOUifVyjf4MtrFkei-82" value="" style="rounded=0;whiteSpace=wrap;html=1;fillColor=#ffe6cc;strokeColor=#d79b00;" vertex="1" parent="1">
          <mxGeometry x="1090" y="510" width="417.5" height="100" as="geometry" />
        </mxCell>
        <mxCell id="5PjFOUifVyjf4MtrFkei-43" value="" style="rounded=0;whiteSpace=wrap;html=1;fillColor=#d5e8d4;strokeColor=#82b366;" vertex="1" parent="1">
          <mxGeometry x="1070" y="220" width="450" height="190" as="geometry" />
        </mxCell>
        <mxCell id="5PjFOUifVyjf4MtrFkei-42" value="" style="rounded=0;whiteSpace=wrap;html=1;fillColor=#dae8fc;strokeColor=#6c8ebf;" vertex="1" parent="1">
          <mxGeometry x="1070" y="-50" width="450" height="180" as="geometry" />
        </mxCell>
        <mxCell id="5PjFOUifVyjf4MtrFkei-2" value="3" style="whiteSpace=wrap;html=1;aspect=fixed;fillColor=none;" vertex="1" parent="1">
          <mxGeometry x="1090" y="40" width="40" height="40" as="geometry" />
        </mxCell>
        <mxCell id="5PjFOUifVyjf4MtrFkei-4" value="3" style="whiteSpace=wrap;html=1;aspect=fixed;fillColor=none;" vertex="1" parent="1">
          <mxGeometry x="1130" y="40" width="40" height="40" as="geometry" />
        </mxCell>
        <mxCell id="5PjFOUifVyjf4MtrFkei-5" value="1" style="whiteSpace=wrap;html=1;aspect=fixed;fillColor=none;" vertex="1" parent="1">
          <mxGeometry x="1170" y="40" width="40" height="40" as="geometry" />
        </mxCell>
        <mxCell id="5PjFOUifVyjf4MtrFkei-6" value="2" style="whiteSpace=wrap;html=1;aspect=fixed;fillColor=none;" vertex="1" parent="1">
          <mxGeometry x="1210" y="40" width="40" height="40" as="geometry" />
        </mxCell>
        <mxCell id="5PjFOUifVyjf4MtrFkei-7" value="2" style="whiteSpace=wrap;html=1;aspect=fixed;fillColor=none;" vertex="1" parent="1">
          <mxGeometry x="1250" y="40" width="40" height="40" as="geometry" />
        </mxCell>
        <mxCell id="5PjFOUifVyjf4MtrFkei-8" value="3" style="whiteSpace=wrap;html=1;aspect=fixed;fillColor=none;" vertex="1" parent="1">
          <mxGeometry x="1290" y="40" width="40" height="40" as="geometry" />
        </mxCell>
        <mxCell id="5PjFOUifVyjf4MtrFkei-9" value="1" style="whiteSpace=wrap;html=1;aspect=fixed;fillColor=none;" vertex="1" parent="1">
          <mxGeometry x="1330" y="40" width="40" height="40" as="geometry" />
        </mxCell>
        <mxCell id="5PjFOUifVyjf4MtrFkei-10" value="1" style="whiteSpace=wrap;html=1;aspect=fixed;fillColor=none;" vertex="1" parent="1">
          <mxGeometry x="1370" y="40" width="40" height="40" as="geometry" />
        </mxCell>
        <mxCell id="5PjFOUifVyjf4MtrFkei-11" value="3" style="whiteSpace=wrap;html=1;aspect=fixed;fillColor=none;" vertex="1" parent="1">
          <mxGeometry x="1410" y="40" width="40" height="40" as="geometry" />
        </mxCell>
        <mxCell id="5PjFOUifVyjf4MtrFkei-12" value="2" style="whiteSpace=wrap;html=1;aspect=fixed;fillColor=none;" vertex="1" parent="1">
          <mxGeometry x="1450" y="40" width="40" height="40" as="geometry" />
        </mxCell>
        <mxCell id="5PjFOUifVyjf4MtrFkei-13" value="&lt;font face=&quot;Comic Sans MS&quot; style=&quot;font-size: 14px;&quot;&gt;0&lt;/font&gt;" style="text;html=1;strokeColor=none;fillColor=none;align=center;verticalAlign=middle;whiteSpace=wrap;rounded=0;" vertex="1" parent="1">
          <mxGeometry x="1095" y="10" width="30" height="30" as="geometry" />
        </mxCell>
        <mxCell id="5PjFOUifVyjf4MtrFkei-14" value="&lt;font face=&quot;Comic Sans MS&quot; style=&quot;font-size: 14px;&quot;&gt;1&lt;/font&gt;" style="text;html=1;strokeColor=none;fillColor=none;align=center;verticalAlign=middle;whiteSpace=wrap;rounded=0;" vertex="1" parent="1">
          <mxGeometry x="1135" y="10" width="30" height="30" as="geometry" />
        </mxCell>
        <mxCell id="5PjFOUifVyjf4MtrFkei-15" value="&lt;font face=&quot;Comic Sans MS&quot; style=&quot;font-size: 14px;&quot;&gt;2&lt;/font&gt;" style="text;html=1;strokeColor=none;fillColor=none;align=center;verticalAlign=middle;whiteSpace=wrap;rounded=0;" vertex="1" parent="1">
          <mxGeometry x="1175" y="10" width="30" height="30" as="geometry" />
        </mxCell>
        <mxCell id="5PjFOUifVyjf4MtrFkei-16" value="&lt;font face=&quot;Comic Sans MS&quot; style=&quot;font-size: 14px;&quot;&gt;3&lt;/font&gt;" style="text;html=1;strokeColor=none;fillColor=none;align=center;verticalAlign=middle;whiteSpace=wrap;rounded=0;" vertex="1" parent="1">
          <mxGeometry x="1215" y="10" width="30" height="30" as="geometry" />
        </mxCell>
        <mxCell id="5PjFOUifVyjf4MtrFkei-17" value="&lt;font face=&quot;Comic Sans MS&quot; style=&quot;font-size: 14px;&quot;&gt;4&lt;/font&gt;" style="text;html=1;strokeColor=none;fillColor=none;align=center;verticalAlign=middle;whiteSpace=wrap;rounded=0;" vertex="1" parent="1">
          <mxGeometry x="1255" y="10" width="30" height="30" as="geometry" />
        </mxCell>
        <mxCell id="5PjFOUifVyjf4MtrFkei-18" value="&lt;font face=&quot;Comic Sans MS&quot; style=&quot;font-size: 14px;&quot;&gt;5&lt;/font&gt;" style="text;html=1;strokeColor=none;fillColor=none;align=center;verticalAlign=middle;whiteSpace=wrap;rounded=0;" vertex="1" parent="1">
          <mxGeometry x="1295" y="10" width="30" height="30" as="geometry" />
        </mxCell>
        <mxCell id="5PjFOUifVyjf4MtrFkei-19" value="&lt;font face=&quot;Comic Sans MS&quot; style=&quot;font-size: 14px;&quot;&gt;6&lt;/font&gt;" style="text;html=1;strokeColor=none;fillColor=none;align=center;verticalAlign=middle;whiteSpace=wrap;rounded=0;" vertex="1" parent="1">
          <mxGeometry x="1335" y="10" width="30" height="30" as="geometry" />
        </mxCell>
        <mxCell id="5PjFOUifVyjf4MtrFkei-20" value="&lt;font face=&quot;Comic Sans MS&quot; style=&quot;font-size: 14px;&quot;&gt;7&lt;/font&gt;" style="text;html=1;strokeColor=none;fillColor=none;align=center;verticalAlign=middle;whiteSpace=wrap;rounded=0;" vertex="1" parent="1">
          <mxGeometry x="1375" y="10" width="30" height="30" as="geometry" />
        </mxCell>
        <mxCell id="5PjFOUifVyjf4MtrFkei-21" value="&lt;font face=&quot;Comic Sans MS&quot; style=&quot;font-size: 14px;&quot;&gt;8&lt;/font&gt;" style="text;html=1;strokeColor=none;fillColor=none;align=center;verticalAlign=middle;whiteSpace=wrap;rounded=0;" vertex="1" parent="1">
          <mxGeometry x="1415" y="10" width="30" height="30" as="geometry" />
        </mxCell>
        <mxCell id="5PjFOUifVyjf4MtrFkei-22" value="&lt;font face=&quot;Comic Sans MS&quot; style=&quot;font-size: 14px;&quot;&gt;9&lt;/font&gt;" style="text;html=1;strokeColor=none;fillColor=none;align=center;verticalAlign=middle;whiteSpace=wrap;rounded=0;" vertex="1" parent="1">
          <mxGeometry x="1455" y="10" width="30" height="30" as="geometry" />
        </mxCell>
        <mxCell id="5PjFOUifVyjf4MtrFkei-23" value="&lt;font face=&quot;Comic Sans MS&quot; style=&quot;font-size: 24px;&quot;&gt;lastShards&lt;/font&gt;" style="text;html=1;strokeColor=none;fillColor=none;align=center;verticalAlign=middle;whiteSpace=wrap;rounded=0;" vertex="1" parent="1">
          <mxGeometry x="1215" y="-30" width="160" height="30" as="geometry" />
        </mxCell>
        <mxCell id="5PjFOUifVyjf4MtrFkei-24" value="&lt;font face=&quot;Comic Sans MS&quot; style=&quot;font-size: 24px;&quot;&gt;旧配置&lt;/font&gt;" style="text;html=1;strokeColor=none;fillColor=none;align=center;verticalAlign=middle;whiteSpace=wrap;rounded=0;" vertex="1" parent="1">
          <mxGeometry x="1610" y="-40" width="160" height="30" as="geometry" />
        </mxCell>
        <mxCell id="5PjFOUifVyjf4MtrFkei-25" value="&lt;font face=&quot;Comic Sans MS&quot; style=&quot;font-size: 24px;&quot;&gt;新配置&lt;/font&gt;" style="text;html=1;strokeColor=none;fillColor=none;align=center;verticalAlign=middle;whiteSpace=wrap;rounded=0;" vertex="1" parent="1">
          <mxGeometry x="1610" y="1290" width="160" height="30" as="geometry" />
        </mxCell>
        <mxCell id="5PjFOUifVyjf4MtrFkei-27" value="&lt;font face=&quot;Comic Sans MS&quot;&gt;&lt;font style=&quot;font-size: 20px;&quot;&gt;三个group：&lt;br&gt;gid 1负责3个shard，&lt;br&gt;gid 2负责3个shard，&lt;br&gt;gid 3负责4个shard&lt;/font&gt;&lt;br&gt;&lt;/font&gt;" style="text;html=1;strokeColor=none;fillColor=none;align=center;verticalAlign=middle;whiteSpace=wrap;rounded=0;" vertex="1" parent="1">
          <mxGeometry x="1560" y="40" width="270" height="30" as="geometry" />
        </mxCell>
        <mxCell id="5PjFOUifVyjf4MtrFkei-28" value="&lt;font face=&quot;Comic Sans MS&quot;&gt;&lt;font style=&quot;font-size: 20px;&quot;&gt;四个group：&lt;br&gt;gid 1负责3个shard，&lt;br&gt;gid 2负责2个shard，&lt;br&gt;gid 3负责3个shard，&lt;br&gt;gid 4负责2个shard。&lt;/font&gt;&lt;br&gt;&lt;/font&gt;" style="text;html=1;strokeColor=none;fillColor=none;align=center;verticalAlign=middle;whiteSpace=wrap;rounded=0;" vertex="1" parent="1">
          <mxGeometry x="1560" y="1320" width="270" height="140" as="geometry" />
        </mxCell>
        <mxCell id="5PjFOUifVyjf4MtrFkei-30" value="&lt;font face=&quot;Comic Sans MS&quot;&gt;&lt;span style=&quot;font-size: 20px;&quot;&gt;Join gid 4&lt;/span&gt;&lt;br&gt;&lt;/font&gt;" style="text;html=1;strokeColor=none;fillColor=none;align=center;verticalAlign=middle;whiteSpace=wrap;rounded=0;" vertex="1" parent="1">
          <mxGeometry x="1630" y="590" width="270" height="30" as="geometry" />
        </mxCell>
        <mxCell id="5PjFOUifVyjf4MtrFkei-31" value="&lt;font face=&quot;Comic Sans MS&quot; style=&quot;font-size: 24px;&quot;&gt;shardCnt&lt;/font&gt;" style="text;html=1;strokeColor=none;fillColor=none;align=center;verticalAlign=middle;whiteSpace=wrap;rounded=0;" vertex="1" parent="1">
          <mxGeometry x="1140" y="370" width="160" height="30" as="geometry" />
        </mxCell>
        <mxCell id="5PjFOUifVyjf4MtrFkei-32" value="&lt;font face=&quot;Comic Sans MS&quot; style=&quot;font-size: 24px;&quot;&gt;{1:3, 2:3, 3:4}&lt;/font&gt;" style="text;html=1;strokeColor=none;fillColor=none;align=center;verticalAlign=middle;whiteSpace=wrap;rounded=0;" vertex="1" parent="1">
          <mxGeometry x="1290" y="370" width="160" height="30" as="geometry" />
        </mxCell>
        <mxCell id="5PjFOUifVyjf4MtrFkei-37" value="&lt;div style=&quot;orphans: 2; text-align: center; line-height: 180%;&quot;&gt;&lt;font face=&quot;Comic Sans MS&quot; style=&quot;font-size: 17px;&quot;&gt;&lt;span style=&quot;box-sizing: border-box; color: rgb(51, 51, 51); orphans: 4; text-align: left; background-color: rgb(255, 255, 255);&quot; class=&quot;md-pair-s&quot;&gt;&lt;span style=&quot;box-sizing: border-box;&quot;&gt;遍历lastShards统计&lt;/span&gt;&lt;span style=&quot;box-sizing: border-box;&quot;&gt;未迁移&lt;/span&gt;&lt;/span&gt;&lt;span style=&quot;box-sizing: border-box; color: rgb(51, 51, 51); orphans: 4; text-align: left; background-color: rgb(255, 255, 255);&quot; class=&quot;md-plain&quot;&gt;shard情况下&lt;/span&gt;&lt;span style=&quot;box-sizing: border-box; color: rgb(51, 51, 51); orphans: 4; text-align: left; background-color: rgb(255, 255, 255);&quot; class=&quot;md-pair-s&quot;&gt;&lt;span style=&quot;box-sizing: border-box;&quot;&gt;新&lt;/span&gt;&lt;/span&gt;&lt;span style=&quot;box-sizing: border-box; color: rgb(51, 51, 51); orphans: 4; text-align: left; background-color: rgb(255, 255, 255);&quot; class=&quot;md-plain&quot;&gt;groups中&lt;/span&gt;&lt;span style=&quot;box-sizing: border-box; color: rgb(51, 51, 51); orphans: 4; text-align: left; background-color: rgb(255, 255, 255);&quot; class=&quot;md-pair-s&quot;&gt;&lt;span style=&quot;box-sizing: border-box;&quot;&gt;前后配置均有&lt;/span&gt;&lt;/span&gt;&lt;span style=&quot;box-sizing: border-box; color: rgb(51, 51, 51); orphans: 4; text-align: left; background-color: rgb(255, 255, 255);&quot; class=&quot;md-plain&quot;&gt;的group&lt;/span&gt;&lt;span style=&quot;box-sizing: border-box; color: rgb(51, 51, 51); orphans: 4; text-align: left; background-color: rgb(255, 255, 255);&quot; class=&quot;md-pair-s&quot;&gt;&lt;span style=&quot;box-sizing: border-box;&quot;&gt;暂时&lt;/span&gt;&lt;/span&gt;&lt;span style=&quot;box-sizing: border-box; color: rgb(51, 51, 51); orphans: 4; text-align: left; background-color: rgb(255, 255, 255);&quot; class=&quot;md-plain md-expand&quot;&gt;负责的shard数量&lt;/span&gt;&lt;/font&gt;&lt;/div&gt;" style="text;html=1;strokeColor=none;fillColor=none;align=center;verticalAlign=middle;whiteSpace=wrap;rounded=0;" vertex="1" parent="1">
          <mxGeometry x="910" y="130" width="380" height="100" as="geometry" />
        </mxCell>
        <mxCell id="5PjFOUifVyjf4MtrFkei-41" value="" style="endArrow=classic;html=1;rounded=0;strokeWidth=3;entryX=0.5;entryY=0;entryDx=0;entryDy=0;exitX=0.5;exitY=1;exitDx=0;exitDy=0;" edge="1" parent="1" source="5PjFOUifVyjf4MtrFkei-42" target="5PjFOUifVyjf4MtrFkei-43">
          <mxGeometry width="50" height="50" relative="1" as="geometry">
            <mxPoint x="1295" y="140" as="sourcePoint" />
            <mxPoint x="1535" y="54.50000000000006" as="targetPoint" />
          </mxGeometry>
        </mxCell>
        <mxCell id="5PjFOUifVyjf4MtrFkei-44" value="3" style="whiteSpace=wrap;html=1;aspect=fixed;fillColor=none;" vertex="1" parent="1">
          <mxGeometry x="1090" y="290" width="40" height="40" as="geometry" />
        </mxCell>
        <mxCell id="5PjFOUifVyjf4MtrFkei-45" value="3" style="whiteSpace=wrap;html=1;aspect=fixed;fillColor=none;" vertex="1" parent="1">
          <mxGeometry x="1130" y="290" width="40" height="40" as="geometry" />
        </mxCell>
        <mxCell id="5PjFOUifVyjf4MtrFkei-46" value="1" style="whiteSpace=wrap;html=1;aspect=fixed;fillColor=none;" vertex="1" parent="1">
          <mxGeometry x="1170" y="290" width="40" height="40" as="geometry" />
        </mxCell>
        <mxCell id="5PjFOUifVyjf4MtrFkei-47" value="2" style="whiteSpace=wrap;html=1;aspect=fixed;fillColor=none;" vertex="1" parent="1">
          <mxGeometry x="1210" y="290" width="40" height="40" as="geometry" />
        </mxCell>
        <mxCell id="5PjFOUifVyjf4MtrFkei-48" value="2" style="whiteSpace=wrap;html=1;aspect=fixed;fillColor=none;" vertex="1" parent="1">
          <mxGeometry x="1250" y="290" width="40" height="40" as="geometry" />
        </mxCell>
        <mxCell id="5PjFOUifVyjf4MtrFkei-49" value="3" style="whiteSpace=wrap;html=1;aspect=fixed;fillColor=none;" vertex="1" parent="1">
          <mxGeometry x="1290" y="290" width="40" height="40" as="geometry" />
        </mxCell>
        <mxCell id="5PjFOUifVyjf4MtrFkei-50" value="1" style="whiteSpace=wrap;html=1;aspect=fixed;fillColor=none;" vertex="1" parent="1">
          <mxGeometry x="1330" y="290" width="40" height="40" as="geometry" />
        </mxCell>
        <mxCell id="5PjFOUifVyjf4MtrFkei-51" value="1" style="whiteSpace=wrap;html=1;aspect=fixed;fillColor=none;" vertex="1" parent="1">
          <mxGeometry x="1370" y="290" width="40" height="40" as="geometry" />
        </mxCell>
        <mxCell id="5PjFOUifVyjf4MtrFkei-52" value="3" style="whiteSpace=wrap;html=1;aspect=fixed;fillColor=none;" vertex="1" parent="1">
          <mxGeometry x="1410" y="290" width="40" height="40" as="geometry" />
        </mxCell>
        <mxCell id="5PjFOUifVyjf4MtrFkei-53" value="2" style="whiteSpace=wrap;html=1;aspect=fixed;fillColor=none;" vertex="1" parent="1">
          <mxGeometry x="1450" y="290" width="40" height="40" as="geometry" />
        </mxCell>
        <mxCell id="5PjFOUifVyjf4MtrFkei-54" value="&lt;font face=&quot;Comic Sans MS&quot; style=&quot;font-size: 14px;&quot;&gt;0&lt;/font&gt;" style="text;html=1;strokeColor=none;fillColor=none;align=center;verticalAlign=middle;whiteSpace=wrap;rounded=0;" vertex="1" parent="1">
          <mxGeometry x="1095" y="260" width="30" height="30" as="geometry" />
        </mxCell>
        <mxCell id="5PjFOUifVyjf4MtrFkei-55" value="&lt;font face=&quot;Comic Sans MS&quot; style=&quot;font-size: 14px;&quot;&gt;1&lt;/font&gt;" style="text;html=1;strokeColor=none;fillColor=none;align=center;verticalAlign=middle;whiteSpace=wrap;rounded=0;" vertex="1" parent="1">
          <mxGeometry x="1135" y="260" width="30" height="30" as="geometry" />
        </mxCell>
        <mxCell id="5PjFOUifVyjf4MtrFkei-56" value="&lt;font face=&quot;Comic Sans MS&quot; style=&quot;font-size: 14px;&quot;&gt;2&lt;/font&gt;" style="text;html=1;strokeColor=none;fillColor=none;align=center;verticalAlign=middle;whiteSpace=wrap;rounded=0;" vertex="1" parent="1">
          <mxGeometry x="1175" y="260" width="30" height="30" as="geometry" />
        </mxCell>
        <mxCell id="5PjFOUifVyjf4MtrFkei-57" value="&lt;font face=&quot;Comic Sans MS&quot; style=&quot;font-size: 14px;&quot;&gt;3&lt;/font&gt;" style="text;html=1;strokeColor=none;fillColor=none;align=center;verticalAlign=middle;whiteSpace=wrap;rounded=0;" vertex="1" parent="1">
          <mxGeometry x="1215" y="260" width="30" height="30" as="geometry" />
        </mxCell>
        <mxCell id="5PjFOUifVyjf4MtrFkei-58" value="&lt;font face=&quot;Comic Sans MS&quot; style=&quot;font-size: 14px;&quot;&gt;4&lt;/font&gt;" style="text;html=1;strokeColor=none;fillColor=none;align=center;verticalAlign=middle;whiteSpace=wrap;rounded=0;" vertex="1" parent="1">
          <mxGeometry x="1255" y="260" width="30" height="30" as="geometry" />
        </mxCell>
        <mxCell id="5PjFOUifVyjf4MtrFkei-59" value="&lt;font face=&quot;Comic Sans MS&quot; style=&quot;font-size: 14px;&quot;&gt;5&lt;/font&gt;" style="text;html=1;strokeColor=none;fillColor=none;align=center;verticalAlign=middle;whiteSpace=wrap;rounded=0;" vertex="1" parent="1">
          <mxGeometry x="1295" y="260" width="30" height="30" as="geometry" />
        </mxCell>
        <mxCell id="5PjFOUifVyjf4MtrFkei-60" value="&lt;font face=&quot;Comic Sans MS&quot; style=&quot;font-size: 14px;&quot;&gt;6&lt;/font&gt;" style="text;html=1;strokeColor=none;fillColor=none;align=center;verticalAlign=middle;whiteSpace=wrap;rounded=0;" vertex="1" parent="1">
          <mxGeometry x="1335" y="260" width="30" height="30" as="geometry" />
        </mxCell>
        <mxCell id="5PjFOUifVyjf4MtrFkei-61" value="&lt;font face=&quot;Comic Sans MS&quot; style=&quot;font-size: 14px;&quot;&gt;7&lt;/font&gt;" style="text;html=1;strokeColor=none;fillColor=none;align=center;verticalAlign=middle;whiteSpace=wrap;rounded=0;" vertex="1" parent="1">
          <mxGeometry x="1375" y="260" width="30" height="30" as="geometry" />
        </mxCell>
        <mxCell id="5PjFOUifVyjf4MtrFkei-62" value="&lt;font face=&quot;Comic Sans MS&quot; style=&quot;font-size: 14px;&quot;&gt;8&lt;/font&gt;" style="text;html=1;strokeColor=none;fillColor=none;align=center;verticalAlign=middle;whiteSpace=wrap;rounded=0;" vertex="1" parent="1">
          <mxGeometry x="1415" y="260" width="30" height="30" as="geometry" />
        </mxCell>
        <mxCell id="5PjFOUifVyjf4MtrFkei-63" value="&lt;font face=&quot;Comic Sans MS&quot; style=&quot;font-size: 14px;&quot;&gt;9&lt;/font&gt;" style="text;html=1;strokeColor=none;fillColor=none;align=center;verticalAlign=middle;whiteSpace=wrap;rounded=0;" vertex="1" parent="1">
          <mxGeometry x="1455" y="260" width="30" height="30" as="geometry" />
        </mxCell>
        <mxCell id="5PjFOUifVyjf4MtrFkei-64" value="&lt;font face=&quot;Comic Sans MS&quot; style=&quot;font-size: 24px;&quot;&gt;resShards&lt;/font&gt;" style="text;html=1;strokeColor=none;fillColor=none;align=center;verticalAlign=middle;whiteSpace=wrap;rounded=0;" vertex="1" parent="1">
          <mxGeometry x="1215" y="230" width="160" height="30" as="geometry" />
        </mxCell>
        <mxCell id="5PjFOUifVyjf4MtrFkei-66" value="" style="endArrow=classic;html=1;rounded=0;strokeWidth=3;" edge="1" parent="1">
          <mxGeometry width="50" height="50" relative="1" as="geometry">
            <mxPoint x="1300" y="410" as="sourcePoint" />
            <mxPoint x="1300" y="510" as="targetPoint" />
          </mxGeometry>
        </mxCell>
        <mxCell id="5PjFOUifVyjf4MtrFkei-67" value="&lt;div style=&quot;orphans: 2; line-height: 180%;&quot;&gt;&lt;font face=&quot;Comic Sans MS&quot; style=&quot;font-size: 17px;&quot;&gt;&lt;span style=&quot;box-sizing: border-box; color: rgb(51, 51, 51); orphans: 4; background-color: rgb(255, 255, 255);&quot; class=&quot;md-pair-s&quot;&gt;&lt;span style=&quot;box-sizing: border-box;&quot;&gt;遍历新配置中的groups来获取更新后存在的gid&lt;/span&gt;&lt;/span&gt;&lt;/font&gt;&lt;/div&gt;&lt;div style=&quot;orphans: 4; line-height: 180%;&quot;&gt;&lt;font face=&quot;Comic Sans MS&quot; size=&quot;3&quot; color=&quot;#333333&quot;&gt;&lt;span style=&quot;background-color: rgb(255, 255, 255);&quot;&gt;如果有则将新加入的gid也放入shardCnt中&lt;/span&gt;&lt;/font&gt;&lt;/div&gt;" style="text;html=1;strokeColor=none;fillColor=none;align=center;verticalAlign=middle;whiteSpace=wrap;rounded=0;" vertex="1" parent="1">
          <mxGeometry x="925" y="430" width="370" height="60" as="geometry" />
        </mxCell>
        <mxCell id="5PjFOUifVyjf4MtrFkei-69" value="&lt;font face=&quot;Comic Sans MS&quot;&gt;&lt;span style=&quot;font-size: 24px;&quot;&gt;gidSlice&lt;/span&gt;&lt;/font&gt;" style="text;html=1;strokeColor=none;fillColor=none;align=center;verticalAlign=middle;whiteSpace=wrap;rounded=0;" vertex="1" parent="1">
          <mxGeometry x="1120" y="520" width="160" height="30" as="geometry" />
        </mxCell>
        <mxCell id="5PjFOUifVyjf4MtrFkei-78" value="&lt;font face=&quot;Comic Sans MS&quot; style=&quot;font-size: 24px;&quot;&gt;{1, 2, 3, 4}&lt;/font&gt;" style="text;html=1;strokeColor=none;fillColor=none;align=center;verticalAlign=middle;whiteSpace=wrap;rounded=0;" vertex="1" parent="1">
          <mxGeometry x="1265" y="520" width="160" height="30" as="geometry" />
        </mxCell>
        <mxCell id="5PjFOUifVyjf4MtrFkei-79" value="&lt;font face=&quot;Comic Sans MS&quot; style=&quot;font-size: 24px;&quot;&gt;shardCnt&lt;/font&gt;" style="text;html=1;strokeColor=none;fillColor=none;align=center;verticalAlign=middle;whiteSpace=wrap;rounded=0;" vertex="1" parent="1">
          <mxGeometry x="1115" y="560" width="160" height="30" as="geometry" />
        </mxCell>
        <mxCell id="5PjFOUifVyjf4MtrFkei-81" value="&lt;font face=&quot;Comic Sans MS&quot; style=&quot;font-size: 24px;&quot;&gt;{1:3, 2:3, 3:4, 4:0}&lt;/font&gt;" style="text;html=1;strokeColor=none;fillColor=none;align=center;verticalAlign=middle;whiteSpace=wrap;rounded=0;" vertex="1" parent="1">
          <mxGeometry x="1270" y="560" width="215" height="30" as="geometry" />
        </mxCell>
        <mxCell id="5PjFOUifVyjf4MtrFkei-83" value="&lt;p style=&quot;line-height: 180%;&quot;&gt;&lt;font face=&quot;Comic Sans MS&quot;&gt;&lt;span class=&quot;md-pair-s md-expand&quot; style=&quot;box-sizing: border-box; color: rgb(51, 51, 51); font-size: 16px; font-style: normal; font-variant-ligatures: normal; font-variant-caps: normal; letter-spacing: normal; orphans: 4; text-indent: 0px; text-transform: none; widows: 2; word-spacing: 0px; -webkit-text-stroke-width: 0px; background-color: rgb(255, 255, 255); text-decoration-style: initial; text-decoration-color: initial;&quot;&gt;&lt;span style=&quot;box-sizing: border-box;&quot;&gt;&lt;span class=&quot;md-plain&quot; style=&quot;box-sizing: border-box;&quot;&gt;根据排序规则对gidSlice进行排序：当前&lt;/span&gt;&lt;/span&gt;&lt;/span&gt;&lt;span class=&quot;md-plain md-expand&quot; style=&quot;box-sizing: border-box; color: rgb(51, 51, 51); font-size: 16px; font-style: normal; font-variant-ligatures: normal; font-variant-caps: normal; font-weight: 400; letter-spacing: normal; orphans: 4; text-indent: 0px; text-transform: none; widows: 2; word-spacing: 0px; -webkit-text-stroke-width: 0px; background-color: rgb(255, 255, 255); text-decoration-style: initial; text-decoration-color: initial;&quot;&gt;负载大的group排在前面，若负载相同则gid小的排在前面&lt;/span&gt;&lt;/font&gt;&lt;/p&gt;" style="text;whiteSpace=wrap;html=1;align=center;" vertex="1" parent="1">
          <mxGeometry x="850" y="610" width="460" height="80" as="geometry" />
        </mxCell>
        <mxCell id="5PjFOUifVyjf4MtrFkei-84" value="" style="rounded=0;whiteSpace=wrap;html=1;fillColor=#fff2cc;strokeColor=#d6b656;" vertex="1" parent="1">
          <mxGeometry x="1080" y="690" width="450" height="320" as="geometry" />
        </mxCell>
        <mxCell id="5PjFOUifVyjf4MtrFkei-85" value="" style="endArrow=classic;html=1;rounded=0;strokeWidth=3;" edge="1" parent="1">
          <mxGeometry width="50" height="50" relative="1" as="geometry">
            <mxPoint x="1305" y="610" as="sourcePoint" />
            <mxPoint x="1305" y="690" as="targetPoint" />
          </mxGeometry>
        </mxCell>
        <mxCell id="5PjFOUifVyjf4MtrFkei-86" value="&lt;font face=&quot;Comic Sans MS&quot;&gt;&lt;span style=&quot;font-size: 24px;&quot;&gt;gidSlice&lt;/span&gt;&lt;/font&gt;" style="text;html=1;strokeColor=none;fillColor=none;align=center;verticalAlign=middle;whiteSpace=wrap;rounded=0;" vertex="1" parent="1">
          <mxGeometry x="1140" y="700" width="160" height="30" as="geometry" />
        </mxCell>
        <mxCell id="5PjFOUifVyjf4MtrFkei-87" value="&lt;font face=&quot;Comic Sans MS&quot; style=&quot;font-size: 24px;&quot;&gt;{3, 1, 2, 4}&lt;/font&gt;" style="text;html=1;strokeColor=none;fillColor=none;align=center;verticalAlign=middle;whiteSpace=wrap;rounded=0;" vertex="1" parent="1">
          <mxGeometry x="1275" y="700" width="160" height="30" as="geometry" />
        </mxCell>
        <mxCell id="5PjFOUifVyjf4MtrFkei-88" value="&lt;font face=&quot;Comic Sans MS&quot; style=&quot;font-size: 24px;&quot;&gt;shardCnt&lt;/font&gt;" style="text;html=1;strokeColor=none;fillColor=none;align=center;verticalAlign=middle;whiteSpace=wrap;rounded=0;" vertex="1" parent="1">
          <mxGeometry x="1125" y="740" width="160" height="30" as="geometry" />
        </mxCell>
        <mxCell id="5PjFOUifVyjf4MtrFkei-89" value="&lt;font face=&quot;Comic Sans MS&quot; style=&quot;font-size: 24px;&quot;&gt;{1:3, 2:3, 3:4, 4:0}&lt;/font&gt;" style="text;html=1;strokeColor=none;fillColor=none;align=center;verticalAlign=middle;whiteSpace=wrap;rounded=0;" vertex="1" parent="1">
          <mxGeometry x="1275" y="740" width="215" height="30" as="geometry" />
        </mxCell>
        <mxCell id="5PjFOUifVyjf4MtrFkei-90" value="&lt;font face=&quot;Comic Sans MS&quot;&gt;&lt;span style=&quot;font-size: 24px;&quot;&gt;最终gid为3和1的组负责3个shard，gid为2和4的组负责2个shard。&lt;/span&gt;&lt;/font&gt;" style="text;html=1;strokeColor=none;fillColor=none;align=center;verticalAlign=middle;whiteSpace=wrap;rounded=0;" vertex="1" parent="1">
          <mxGeometry x="1115" y="790" width="390" height="30" as="geometry" />
        </mxCell>
        <mxCell id="5PjFOUifVyjf4MtrFkei-92" value="" style="endArrow=classic;html=1;rounded=0;strokeWidth=3;" edge="1" parent="1">
          <mxGeometry width="50" height="50" relative="1" as="geometry">
            <mxPoint x="1311.5" y="1010" as="sourcePoint" />
            <mxPoint x="1311.5" y="1090" as="targetPoint" />
          </mxGeometry>
        </mxCell>
        <mxCell id="5PjFOUifVyjf4MtrFkei-93" value="&lt;p style=&quot;orphans: 4; line-height: 145%;&quot;&gt;&lt;font style=&quot;font-size: 17px;&quot; face=&quot;Comic Sans MS&quot; color=&quot;#333333&quot;&gt;&lt;span style=&quot;background-color: rgb(255, 255, 255);&quot;&gt;一次for循环将超载的组释放超出的shard&lt;/span&gt;&lt;/font&gt;&lt;/p&gt;" style="text;whiteSpace=wrap;html=1;align=center;" vertex="1" parent="1">
          <mxGeometry x="922.5" y="1020" width="430" height="50" as="geometry" />
        </mxCell>
        <mxCell id="5PjFOUifVyjf4MtrFkei-94" value="" style="rounded=0;whiteSpace=wrap;html=1;fillColor=#f8cecc;strokeColor=#b85450;" vertex="1" parent="1">
          <mxGeometry x="1087.5" y="1090" width="450" height="140" as="geometry" />
        </mxCell>
        <mxCell id="5PjFOUifVyjf4MtrFkei-97" value="0" style="whiteSpace=wrap;html=1;aspect=fixed;" vertex="1" parent="1">
          <mxGeometry x="1107.5" y="1160" width="40" height="40" as="geometry" />
        </mxCell>
        <mxCell id="5PjFOUifVyjf4MtrFkei-98" value="3" style="whiteSpace=wrap;html=1;aspect=fixed;fillColor=none;" vertex="1" parent="1">
          <mxGeometry x="1147.5" y="1160" width="40" height="40" as="geometry" />
        </mxCell>
        <mxCell id="5PjFOUifVyjf4MtrFkei-99" value="1" style="whiteSpace=wrap;html=1;aspect=fixed;fillColor=none;" vertex="1" parent="1">
          <mxGeometry x="1187.5" y="1160" width="40" height="40" as="geometry" />
        </mxCell>
        <mxCell id="5PjFOUifVyjf4MtrFkei-100" value="0" style="whiteSpace=wrap;html=1;aspect=fixed;" vertex="1" parent="1">
          <mxGeometry x="1227.5" y="1160" width="40" height="40" as="geometry" />
        </mxCell>
        <mxCell id="5PjFOUifVyjf4MtrFkei-101" value="2" style="whiteSpace=wrap;html=1;aspect=fixed;fillColor=none;" vertex="1" parent="1">
          <mxGeometry x="1267.5" y="1160" width="40" height="40" as="geometry" />
        </mxCell>
        <mxCell id="5PjFOUifVyjf4MtrFkei-102" value="3" style="whiteSpace=wrap;html=1;aspect=fixed;fillColor=none;" vertex="1" parent="1">
          <mxGeometry x="1307.5" y="1160" width="40" height="40" as="geometry" />
        </mxCell>
        <mxCell id="5PjFOUifVyjf4MtrFkei-103" value="1" style="whiteSpace=wrap;html=1;aspect=fixed;fillColor=none;" vertex="1" parent="1">
          <mxGeometry x="1347.5" y="1160" width="40" height="40" as="geometry" />
        </mxCell>
        <mxCell id="5PjFOUifVyjf4MtrFkei-104" value="1" style="whiteSpace=wrap;html=1;aspect=fixed;fillColor=none;" vertex="1" parent="1">
          <mxGeometry x="1387.5" y="1160" width="40" height="40" as="geometry" />
        </mxCell>
        <mxCell id="5PjFOUifVyjf4MtrFkei-105" value="3" style="whiteSpace=wrap;html=1;aspect=fixed;fillColor=none;" vertex="1" parent="1">
          <mxGeometry x="1427.5" y="1160" width="40" height="40" as="geometry" />
        </mxCell>
        <mxCell id="5PjFOUifVyjf4MtrFkei-106" value="2" style="whiteSpace=wrap;html=1;aspect=fixed;fillColor=none;" vertex="1" parent="1">
          <mxGeometry x="1467.5" y="1160" width="40" height="40" as="geometry" />
        </mxCell>
        <mxCell id="5PjFOUifVyjf4MtrFkei-107" value="&lt;font face=&quot;Comic Sans MS&quot; style=&quot;font-size: 14px;&quot;&gt;0&lt;/font&gt;" style="text;html=1;strokeColor=none;fillColor=none;align=center;verticalAlign=middle;whiteSpace=wrap;rounded=0;" vertex="1" parent="1">
          <mxGeometry x="1112.5" y="1130" width="30" height="30" as="geometry" />
        </mxCell>
        <mxCell id="5PjFOUifVyjf4MtrFkei-108" value="&lt;font face=&quot;Comic Sans MS&quot; style=&quot;font-size: 14px;&quot;&gt;1&lt;/font&gt;" style="text;html=1;strokeColor=none;fillColor=none;align=center;verticalAlign=middle;whiteSpace=wrap;rounded=0;" vertex="1" parent="1">
          <mxGeometry x="1152.5" y="1130" width="30" height="30" as="geometry" />
        </mxCell>
        <mxCell id="5PjFOUifVyjf4MtrFkei-109" value="&lt;font face=&quot;Comic Sans MS&quot; style=&quot;font-size: 14px;&quot;&gt;2&lt;/font&gt;" style="text;html=1;strokeColor=none;fillColor=none;align=center;verticalAlign=middle;whiteSpace=wrap;rounded=0;" vertex="1" parent="1">
          <mxGeometry x="1192.5" y="1130" width="30" height="30" as="geometry" />
        </mxCell>
        <mxCell id="5PjFOUifVyjf4MtrFkei-110" value="&lt;font face=&quot;Comic Sans MS&quot; style=&quot;font-size: 14px;&quot;&gt;3&lt;/font&gt;" style="text;html=1;strokeColor=none;fillColor=none;align=center;verticalAlign=middle;whiteSpace=wrap;rounded=0;" vertex="1" parent="1">
          <mxGeometry x="1232.5" y="1130" width="30" height="30" as="geometry" />
        </mxCell>
        <mxCell id="5PjFOUifVyjf4MtrFkei-111" value="&lt;font face=&quot;Comic Sans MS&quot; style=&quot;font-size: 14px;&quot;&gt;4&lt;/font&gt;" style="text;html=1;strokeColor=none;fillColor=none;align=center;verticalAlign=middle;whiteSpace=wrap;rounded=0;" vertex="1" parent="1">
          <mxGeometry x="1272.5" y="1130" width="30" height="30" as="geometry" />
        </mxCell>
        <mxCell id="5PjFOUifVyjf4MtrFkei-112" value="&lt;font face=&quot;Comic Sans MS&quot; style=&quot;font-size: 14px;&quot;&gt;5&lt;/font&gt;" style="text;html=1;strokeColor=none;fillColor=none;align=center;verticalAlign=middle;whiteSpace=wrap;rounded=0;" vertex="1" parent="1">
          <mxGeometry x="1312.5" y="1130" width="30" height="30" as="geometry" />
        </mxCell>
        <mxCell id="5PjFOUifVyjf4MtrFkei-113" value="&lt;font face=&quot;Comic Sans MS&quot; style=&quot;font-size: 14px;&quot;&gt;6&lt;/font&gt;" style="text;html=1;strokeColor=none;fillColor=none;align=center;verticalAlign=middle;whiteSpace=wrap;rounded=0;" vertex="1" parent="1">
          <mxGeometry x="1352.5" y="1130" width="30" height="30" as="geometry" />
        </mxCell>
        <mxCell id="5PjFOUifVyjf4MtrFkei-114" value="&lt;font face=&quot;Comic Sans MS&quot; style=&quot;font-size: 14px;&quot;&gt;7&lt;/font&gt;" style="text;html=1;strokeColor=none;fillColor=none;align=center;verticalAlign=middle;whiteSpace=wrap;rounded=0;" vertex="1" parent="1">
          <mxGeometry x="1392.5" y="1130" width="30" height="30" as="geometry" />
        </mxCell>
        <mxCell id="5PjFOUifVyjf4MtrFkei-115" value="&lt;font face=&quot;Comic Sans MS&quot; style=&quot;font-size: 14px;&quot;&gt;8&lt;/font&gt;" style="text;html=1;strokeColor=none;fillColor=none;align=center;verticalAlign=middle;whiteSpace=wrap;rounded=0;" vertex="1" parent="1">
          <mxGeometry x="1432.5" y="1130" width="30" height="30" as="geometry" />
        </mxCell>
        <mxCell id="5PjFOUifVyjf4MtrFkei-116" value="&lt;font face=&quot;Comic Sans MS&quot; style=&quot;font-size: 14px;&quot;&gt;9&lt;/font&gt;" style="text;html=1;strokeColor=none;fillColor=none;align=center;verticalAlign=middle;whiteSpace=wrap;rounded=0;" vertex="1" parent="1">
          <mxGeometry x="1472.5" y="1130" width="30" height="30" as="geometry" />
        </mxCell>
        <mxCell id="5PjFOUifVyjf4MtrFkei-117" value="&lt;font face=&quot;Comic Sans MS&quot; style=&quot;font-size: 24px;&quot;&gt;resShards&lt;/font&gt;" style="text;html=1;strokeColor=none;fillColor=none;align=center;verticalAlign=middle;whiteSpace=wrap;rounded=0;" vertex="1" parent="1">
          <mxGeometry x="1232.5" y="1100" width="160" height="30" as="geometry" />
        </mxCell>
        <mxCell id="5PjFOUifVyjf4MtrFkei-118" value="&lt;font face=&quot;Comic Sans MS&quot;&gt;&lt;span style=&quot;font-size: 24px;&quot;&gt;shard数量变化：&lt;br&gt;gid 1: 3 -&amp;gt; 3&lt;br&gt;gid 2: 3 -&amp;gt; 2&lt;br&gt;gid 3: 4 -&amp;gt; 3&lt;br&gt;gid 4: 0 -&amp;gt; 2&lt;br&gt;&lt;/span&gt;&lt;/font&gt;" style="text;html=1;strokeColor=none;fillColor=none;align=center;verticalAlign=middle;whiteSpace=wrap;rounded=0;" vertex="1" parent="1">
          <mxGeometry x="1120" y="910" width="390" height="30" as="geometry" />
        </mxCell>
        <mxCell id="5PjFOUifVyjf4MtrFkei-120" value="" style="endArrow=classic;html=1;rounded=0;strokeWidth=3;" edge="1" parent="1">
          <mxGeometry width="50" height="50" relative="1" as="geometry">
            <mxPoint x="1311.5" y="1230" as="sourcePoint" />
            <mxPoint x="1311.5" y="1310" as="targetPoint" />
          </mxGeometry>
        </mxCell>
        <mxCell id="5PjFOUifVyjf4MtrFkei-121" value="&lt;p style=&quot;orphans: 4; line-height: 145%;&quot;&gt;&lt;font style=&quot;font-size: 17px;&quot; face=&quot;Comic Sans MS&quot; color=&quot;#333333&quot;&gt;&lt;span style=&quot;background-color: rgb(255, 255, 255);&quot;&gt;再一次for循环将resShards中待分配的shard分配给不足的group&lt;/span&gt;&lt;/font&gt;&lt;/p&gt;" style="text;whiteSpace=wrap;html=1;align=center;" vertex="1" parent="1">
          <mxGeometry x="872.5" y="1240" width="430" height="50" as="geometry" />
        </mxCell>
        <mxCell id="5PjFOUifVyjf4MtrFkei-122" value="" style="rounded=0;whiteSpace=wrap;html=1;fillColor=#e1d5e7;strokeColor=#9673a6;" vertex="1" parent="1">
          <mxGeometry x="1087.5" y="1310" width="450" height="140" as="geometry" />
        </mxCell>
        <mxCell id="5PjFOUifVyjf4MtrFkei-123" value="4" style="whiteSpace=wrap;html=1;aspect=fixed;fillColor=#e1d5e7;strokeColor=#000000;" vertex="1" parent="1">
          <mxGeometry x="1107.5" y="1380" width="40" height="40" as="geometry" />
        </mxCell>
        <mxCell id="5PjFOUifVyjf4MtrFkei-124" value="3" style="whiteSpace=wrap;html=1;aspect=fixed;fillColor=none;" vertex="1" parent="1">
          <mxGeometry x="1147.5" y="1380" width="40" height="40" as="geometry" />
        </mxCell>
        <mxCell id="5PjFOUifVyjf4MtrFkei-125" value="1" style="whiteSpace=wrap;html=1;aspect=fixed;fillColor=none;" vertex="1" parent="1">
          <mxGeometry x="1187.5" y="1380" width="40" height="40" as="geometry" />
        </mxCell>
        <mxCell id="5PjFOUifVyjf4MtrFkei-126" value="4" style="whiteSpace=wrap;html=1;aspect=fixed;fillColor=#e1d5e7;strokeColor=#000000;" vertex="1" parent="1">
          <mxGeometry x="1227.5" y="1380" width="40" height="40" as="geometry" />
        </mxCell>
        <mxCell id="5PjFOUifVyjf4MtrFkei-127" value="2" style="whiteSpace=wrap;html=1;aspect=fixed;fillColor=none;" vertex="1" parent="1">
          <mxGeometry x="1267.5" y="1380" width="40" height="40" as="geometry" />
        </mxCell>
        <mxCell id="5PjFOUifVyjf4MtrFkei-128" value="3" style="whiteSpace=wrap;html=1;aspect=fixed;fillColor=none;" vertex="1" parent="1">
          <mxGeometry x="1307.5" y="1380" width="40" height="40" as="geometry" />
        </mxCell>
        <mxCell id="5PjFOUifVyjf4MtrFkei-129" value="1" style="whiteSpace=wrap;html=1;aspect=fixed;fillColor=none;" vertex="1" parent="1">
          <mxGeometry x="1347.5" y="1380" width="40" height="40" as="geometry" />
        </mxCell>
        <mxCell id="5PjFOUifVyjf4MtrFkei-130" value="1" style="whiteSpace=wrap;html=1;aspect=fixed;fillColor=none;" vertex="1" parent="1">
          <mxGeometry x="1387.5" y="1380" width="40" height="40" as="geometry" />
        </mxCell>
        <mxCell id="5PjFOUifVyjf4MtrFkei-131" value="3" style="whiteSpace=wrap;html=1;aspect=fixed;fillColor=none;" vertex="1" parent="1">
          <mxGeometry x="1427.5" y="1380" width="40" height="40" as="geometry" />
        </mxCell>
        <mxCell id="5PjFOUifVyjf4MtrFkei-132" value="2" style="whiteSpace=wrap;html=1;aspect=fixed;fillColor=none;" vertex="1" parent="1">
          <mxGeometry x="1467.5" y="1380" width="40" height="40" as="geometry" />
        </mxCell>
        <mxCell id="5PjFOUifVyjf4MtrFkei-133" value="&lt;font face=&quot;Comic Sans MS&quot; style=&quot;font-size: 14px;&quot;&gt;0&lt;/font&gt;" style="text;html=1;strokeColor=none;fillColor=none;align=center;verticalAlign=middle;whiteSpace=wrap;rounded=0;" vertex="1" parent="1">
          <mxGeometry x="1112.5" y="1350" width="30" height="30" as="geometry" />
        </mxCell>
        <mxCell id="5PjFOUifVyjf4MtrFkei-134" value="&lt;font face=&quot;Comic Sans MS&quot; style=&quot;font-size: 14px;&quot;&gt;1&lt;/font&gt;" style="text;html=1;strokeColor=none;fillColor=none;align=center;verticalAlign=middle;whiteSpace=wrap;rounded=0;" vertex="1" parent="1">
          <mxGeometry x="1152.5" y="1350" width="30" height="30" as="geometry" />
        </mxCell>
        <mxCell id="5PjFOUifVyjf4MtrFkei-135" value="&lt;font face=&quot;Comic Sans MS&quot; style=&quot;font-size: 14px;&quot;&gt;2&lt;/font&gt;" style="text;html=1;strokeColor=none;fillColor=none;align=center;verticalAlign=middle;whiteSpace=wrap;rounded=0;" vertex="1" parent="1">
          <mxGeometry x="1192.5" y="1350" width="30" height="30" as="geometry" />
        </mxCell>
        <mxCell id="5PjFOUifVyjf4MtrFkei-136" value="&lt;font face=&quot;Comic Sans MS&quot; style=&quot;font-size: 14px;&quot;&gt;3&lt;/font&gt;" style="text;html=1;strokeColor=none;fillColor=none;align=center;verticalAlign=middle;whiteSpace=wrap;rounded=0;" vertex="1" parent="1">
          <mxGeometry x="1232.5" y="1350" width="30" height="30" as="geometry" />
        </mxCell>
        <mxCell id="5PjFOUifVyjf4MtrFkei-137" value="&lt;font face=&quot;Comic Sans MS&quot; style=&quot;font-size: 14px;&quot;&gt;4&lt;/font&gt;" style="text;html=1;strokeColor=none;fillColor=none;align=center;verticalAlign=middle;whiteSpace=wrap;rounded=0;" vertex="1" parent="1">
          <mxGeometry x="1272.5" y="1350" width="30" height="30" as="geometry" />
        </mxCell>
        <mxCell id="5PjFOUifVyjf4MtrFkei-138" value="&lt;font face=&quot;Comic Sans MS&quot; style=&quot;font-size: 14px;&quot;&gt;5&lt;/font&gt;" style="text;html=1;strokeColor=none;fillColor=none;align=center;verticalAlign=middle;whiteSpace=wrap;rounded=0;" vertex="1" parent="1">
          <mxGeometry x="1312.5" y="1350" width="30" height="30" as="geometry" />
        </mxCell>
        <mxCell id="5PjFOUifVyjf4MtrFkei-139" value="&lt;font face=&quot;Comic Sans MS&quot; style=&quot;font-size: 14px;&quot;&gt;6&lt;/font&gt;" style="text;html=1;strokeColor=none;fillColor=none;align=center;verticalAlign=middle;whiteSpace=wrap;rounded=0;" vertex="1" parent="1">
          <mxGeometry x="1352.5" y="1350" width="30" height="30" as="geometry" />
        </mxCell>
        <mxCell id="5PjFOUifVyjf4MtrFkei-140" value="&lt;font face=&quot;Comic Sans MS&quot; style=&quot;font-size: 14px;&quot;&gt;7&lt;/font&gt;" style="text;html=1;strokeColor=none;fillColor=none;align=center;verticalAlign=middle;whiteSpace=wrap;rounded=0;" vertex="1" parent="1">
          <mxGeometry x="1392.5" y="1350" width="30" height="30" as="geometry" />
        </mxCell>
        <mxCell id="5PjFOUifVyjf4MtrFkei-141" value="&lt;font face=&quot;Comic Sans MS&quot; style=&quot;font-size: 14px;&quot;&gt;8&lt;/font&gt;" style="text;html=1;strokeColor=none;fillColor=none;align=center;verticalAlign=middle;whiteSpace=wrap;rounded=0;" vertex="1" parent="1">
          <mxGeometry x="1432.5" y="1350" width="30" height="30" as="geometry" />
        </mxCell>
        <mxCell id="5PjFOUifVyjf4MtrFkei-142" value="&lt;font face=&quot;Comic Sans MS&quot; style=&quot;font-size: 14px;&quot;&gt;9&lt;/font&gt;" style="text;html=1;strokeColor=none;fillColor=none;align=center;verticalAlign=middle;whiteSpace=wrap;rounded=0;" vertex="1" parent="1">
          <mxGeometry x="1472.5" y="1350" width="30" height="30" as="geometry" />
        </mxCell>
        <mxCell id="5PjFOUifVyjf4MtrFkei-143" value="&lt;font face=&quot;Comic Sans MS&quot; style=&quot;font-size: 24px;&quot;&gt;resShards&lt;/font&gt;" style="text;html=1;strokeColor=none;fillColor=none;align=center;verticalAlign=middle;whiteSpace=wrap;rounded=0;" vertex="1" parent="1">
          <mxGeometry x="1232.5" y="1320" width="160" height="30" as="geometry" />
        </mxCell>
        <mxCell id="5PjFOUifVyjf4MtrFkei-144" value="" style="shape=flexArrow;endArrow=classic;html=1;rounded=0;" edge="1" parent="1">
          <mxGeometry width="50" height="50" relative="1" as="geometry">
            <mxPoint x="1689.5" y="120" as="sourcePoint" />
            <mxPoint x="1690" y="1283" as="targetPoint" />
          </mxGeometry>
        </mxCell>
        <mxCell id="5PjFOUifVyjf4MtrFkei-145" value="&lt;font face=&quot;Comic Sans MS&quot;&gt;&lt;span style=&quot;font-size: 20px;&quot;&gt;负载均衡&lt;/span&gt;&lt;br&gt;&lt;/font&gt;" style="text;html=1;strokeColor=none;fillColor=none;align=center;verticalAlign=middle;whiteSpace=wrap;rounded=0;" vertex="1" parent="1">
          <mxGeometry x="1620" y="740" width="270" height="30" as="geometry" />
        </mxCell>
      </root>
    </mxGraphModel>
  </diagram>
</mxfile>
